<svg width="90" height="90" viewBox="0 0 180 180" fill="none" xmlns="http://www.w3.org/2000/svg">
   <path d="M23 10H95C121.51 10 143 31.4903 143 58V170H23V10Z" fill="#B7D4F6" fill-opacity="0.8"/>
   <path d="M13.5 20.5H85C111.234 20.5 132.5 41.7665 132.5 68V179.5H13.5V20.5Z" stroke="#0563A7"/>
   <path d="M33.5 0.5H105C131.234 0.5 152.5 21.7665 152.5 48V159.5H33.5V0.5Z" stroke="#0563A7"/>
   <path d="M70.076 59.6V100.264L99.792 59.6L100.528 60.244L84.06 82.692L108.532 124H99.976L79.368 89.132L70.076 101.92V124H62.44V59.6H70.076Z" fill="#0563A7"/>
   <path d="M167 96H143V120H167L163.357 108.444L167 96Z" fill="#A2C3EB"/>
   <path d="M167 62H143V86H167L163.357 74.4444L167 62Z" fill="#1573B7"/>
</svg>